<svg xmlns="http://www.w3.org/2000/svg" width="31.692" height="31.41" viewBox="0 0 31.692 31.41"><defs><style>.a{fill:#707070;}</style></defs><path class="a" d="M357.125,297.41a3.582,3.582,0,0,0,2.548-1.068h0a3.574,3.574,0,0,0,1.022-2.5h0a3.582,3.582,0,0,0-1.068-2.548h0l-6.059-5.961h15.754a3.57,3.57,0,0,0,3.57-3.57h0a3.57,3.57,0,0,0-3.57-3.57H353.45l6.177-6.072a3.571,3.571,0,0,0,1.068-2.548h0a3.562,3.562,0,0,0-1.022-2.5h0A3.571,3.571,0,0,0,357.125,266h0a3.574,3.574,0,0,0-2.5,1.022h0l-12.348,12.132.537.55.537.55L355.7,268.116a2.017,2.017,0,0,1,1.428-.583h0a2.039,2.039,0,0,1,1.454.609h0a2.014,2.014,0,0,1,.583,1.422h0a2.013,2.013,0,0,1-.609,1.448h0l-8.856,8.706h19.626a2.032,2.032,0,0,1,2.031,2.031h0a2.032,2.032,0,0,1-2.031,2.031H349.808l8.739,8.608a2.024,2.024,0,0,1,.609,1.448h0a2.018,2.018,0,0,1-.583,1.428h0a2.028,2.028,0,0,1-1.454.609h0a2.018,2.018,0,0,1-1.428-.583h0l-12.348-12.132a2.049,2.049,0,0,1-.609-1.448h0a2.026,2.026,0,0,1,.609-1.448h0l-.537-.55-.537-.55a3.578,3.578,0,0,0-1.068,2.548h0a3.59,3.59,0,0,0,1.068,2.548h0l12.355,12.125a3.558,3.558,0,0,0,2.5,1.028Z" transform="translate(-341.2 -266)"/></svg>