<svg id="Warstwa_1" data-name="Warstwa 1" xmlns="http://www.w3.org/2000/svg" viewBox="0 0 1299.64 695.72"><defs><style>.cls-1{fill:#c0b356;}.cls-2{font-size:85.95px;font-family:Lato-Regular, Lato;letter-spacing:0em;}.cls-3{letter-spacing:-0.02em;}.cls-4{letter-spacing:0em;}.cls-5{letter-spacing:-0.01em;}.cls-6{letter-spacing:0em;}</style></defs><path class="cls-1" d="M634.5,202.2c-3,11.57-6,23.13-10.06,34.7-2,6.54-5,13.58-7,19.62s-3,11.57-5,17.1c-1.51,4.53-4,9.05-5.53,13.58,0,.5-.5,1-.5,2-2,4-.5,8.05-6,13.07-1.5,1-2,4-2.51,6-1.51,5.54-2.52,11.07-4.53,17.1-2,.51-3,1.51-3,4.53,0,1.51-2,4-2.51,5.54-2.52,7.54-4.53,16.09-7,23.63-3.52,12.08-7.55,24.65-12.07,37.22l-6,20.62c-2.52,6-5.53,12.58-7,18.61-1.51,4.53-1,8.55-2,12.58-.51,3-2.52,5.52-3.52,8.54a107.51,107.51,0,0,0-2,12.58c0,1,.5,3,.5,4.53a109.77,109.77,0,0,1-.5,12.56c.5,0-3,2.52-4.53,2.52s-1.51-2.52-1.51-4c-2-.5-3,0-3.52,2.52-.5,3-2,3-4.53,2.51a18,18,0,0,0-5,1c-3,.5-5.53,1-7-1,0-1-1.51-1.51-2-1.51-5.53,2.52-5.53-2-7-4-1.51-1.52-1.51-4-5-4-1.51,0-2-4.54-1.51-7,1.51-6.54,3.52-13.58,5.53-20.12,5.54-18.61,11.07-37.72,17.1-56.83,5.54-18.61,12.08-38.22,17.61-56.83,4-11.57,8-23.64,11.06-35.21.5-1.51.5-3-.5-3.52-4-3-4-3.52-.51-9.56,1-3,2.52-4,5-6,1.51-1,3-4,2.52-5.54-1-2.5,0-4.52,1-7,2.51-5,4.52-10.56,6.54-15.59.5-2.52,2-5,2.51-7.54,2-4,3-8.56,4-13.08h-1c-2.52,3.52-5.53,7-7.55,10.56-7,13.08-15.09,26.66-22.13,39.73A74.33,74.33,0,0,1,541,297.26v.5c-7.05,5.54-7.55,13.58-12.58,20.12-4.53,5.53-7,12.57-11.06,18.61-3.52,5.53-7.55,10.06-10.57,15.09l-3.52,6.54c-1.51,3-3.52,6-4.53,9-.5,1.52,0,2.52,0,4a36.87,36.87,0,0,0,4.53-3.52c2-3.52,4.53-6.54,7-10.07,0-.5,1-1,1-1,4-2,5.53-4.52,5-7.54v-.5c7.54-6,5.53-14.59,13.58-20.62,3.52-3,7-5,10.56-8.05l3.52-1.51c-1.51-1.51-2-3-4.52-4.52,6.53-1.52,8-5,9.55-9.06,1.51,2.52,4.53,3.52,1,8.05-3,5-5.53,10.56-9,16.6l-5-1.51c-.5,0-.5.5-1.5,1a40.1,40.1,0,0,1,4.52,2l-2,1.52c-.5,0-1-.5-1.51-.5h-4c-.51,1.5-1.51,3-1.51,4,1.51,4-1.51,7-3.52,11.06l-4.53,2c1,0,2,1,2.51,1,1.51.5,3,1.51,3,2-1,1.51-2,4-3.52,5a39.09,39.09,0,0,1-5.53,2.51c-1,3.52-1,5.54-1.51,8.56-4.52,1-7.54,2-7,6.53-.5.51-1,1.51-1.51,1.51-4.53,2.52-3.52,5.53-4,8.55-.51,5-4,8-7.55,12.08-5,5.52-10.05,10-11.56,16.09l-2.52,4c-7.54,9.06-14.59,18.61-23.13,27.67-7.55,8-15.09,17.1-25.66,22.12-10.05,5-20.62,10.57-31.18,14.59a28.33,28.33,0,0,1-18.11,1.5c-6-1.5-12.57-1.5-14.58-7.54-9.56-2-9.56-10.56-10.56-18.11-.51-7.54,0-16.59.5-25.65,1-8,11.07-50.79,12.57-59.34l1.81-5.78c-2.52,2-4.72,5.26-6.23,7.28-5,6-72.73,114.19-90.34,148.38-10.56,15.09-76.8,94.44-90.38,108-15.09,14.09-32.19,25.65-49.79,36.72-7.54,4.52-14.59,9.56-22.13,13.58-6.54,3-12.57,5.53-19.62,6A56.59,56.59,0,0,0,78.68,692c-9.05,4.53-16.09,4.53-22.63,2.52-8.55-1.51-17.1-5-25.65-6.54-15.59-4-23.14-14.58-26.16-28.67-1-5-2.51-10.56-3.52-16.09-.5-.51,0-1-.5-2,.5-6.54-.5-12.07.5-18.11,1-8.55,2.52-17.6,4-26.15.5-1.52-.51-2.52-.51-4,.51-1.52,0-3,1-4.54,4.53-11.06,9.56-21.62,15.09-32.69,1-2,3.52-4.52,5-6,2.51-2,6-3.52,7-.5.5,1,2,1,2.52,2,1,1.51,3,2.51,2.51,3.52,0,3.52.5,5.54,2.52,7,1.51,1,1,3.52,1,5a31.83,31.83,0,0,1-3,9c-1,5-1.51,11.07-4.52,14.59-4.53,5-1.51,7-2,10.06-1.51,5-2,9.55-3.52,14.59-.5,1.5-1.51,3-3.52,6,1,.52,2,2,4,4.54,1-2.52,2-4,2.51-5.54,2.52-6,4-11.56,6.54-17.6h1c-1.51,5.53-3,11.06-3.52,16.6,0,10.06,1,20.11,2,30.17,0,4.53,2,8.56,3,12.08,1.51,3,4,4.52,5.53,7.54,2,6,9.55,6,15.09,7a72.5,72.5,0,0,0,10.06,2.51c6,2,12.57-1,18.6-5,13.59-8.55,26.66-17.61,39.74-26.15,19.11-13.08,33.19-28.17,48.28-44.27,5.53-6,10.06-13.07,15.59-19.11l4-3c1-1.51,3-2.51,3.52-4,8-11.07,90.43-131,99-142.07,10.06-14.08,62.8-84,73.86-97.06,6-8.55,11.1-15.25,13.62-23.8,3.51-11.58,8.74-23.64,13.27-35.21,7.54-21.63,15.59-43.76,23.64-65.38,7.54-17.11,14.58-34.21,22.12-51.3,6-12.58,12.58-24.65,19.62-36.73,9.05-16.09,19.12-32.69,29.17-48.78a22.88,22.88,0,0,0,3.52-7c1.51-7,8.55-11.06,14.09-15.09,3-2,4-1,3.52,1.51,8.54-2,16.59-3.52,25.15-6,3-1,4-.51,4,3-.5,3,0,6.54,0,10.56,0,3-.5,6.54-4.53,10.56-3,3.52-5,8.56-7,13.59-4.53,12.06-8.55,24.64-13.08,36.21-5,13.08-9.55,26.15-14.58,39.73-6,14.09-12.07,28.67-19.11,43.26-4.53,9.56-10.57,19.61-15.6,29.67-4,7-8,14.58-12.07,22.13-3,5.53-7,11.06-10.06,16.6-.5,1.5-2.51,3.52-1.51,5,1,.51-1,3.53-2.51,5.54-2,3.52-4,7.54-6.54,11.07-7.54,11.06-10.06,22.63-14.58,34.19l-2.52,4a14.84,14.84,0,0,0-1,4.54,11.89,11.89,0,0,0-1.51,6c-1,2.52-3,5.53-1,7.55,1,.5-1,4-1,5.53a55.79,55.79,0,0,0-2.51,8.54c-1.51,6.55-2.52,13.09-4,19.63,0,2.51,0,4-1,5.52-1,3-3.52,6-4,9.06-1,4.53-1,9.56-2,13.58a129.69,129.69,0,0,0-2,13.58c-1,6.54-2,12.57-2.51,18.61a67.91,67.91,0,0,0,2,14.59c-.5,1,1.51,1.5,2.51,1a60.12,60.12,0,0,0,12.07-7.54c9.06-9.06,17.11-18.11,25.65-27.17C451.43,417,461,405.9,470.54,394.33l12.07-15.09,21.12-30.18c3-3,5-7.54,7-11.07a118.84,118.84,0,0,0,9.05-13.07c1-1,1-2.51,2-4l22.64-38.73c4-7.54,9.55-15.09,13.07-22.63,8.55-16.6,17.1-33.2,25.65-50.3a6.73,6.73,0,0,0,1.51-2.51c.5-2.52.5-5,2-6,2.52-3.52,6.54-5.53,9.06-7.55,2,.51,3,2,4.52,2,5.54-1.51,11.57-2.52,17.6-4.52a22.2,22.2,0,0,1,12.58-2C634.5,190.12,636,196.66,634.5,202.2Zm-592,470.66c-2-5.54-5-10.57-6.54-16.61-1.51-5-3.52-9-3-14.58.51-1.51-1.51-2.52-2.51-2.52-2,.51-4,2-6.54,3,6,1,7,5.54,7.54,10.56a44.21,44.21,0,0,0,1,8c1,2.52,2.52,5,3,8.05s2.51,4.53,6,6A5.47,5.47,0,0,1,42.47,672.86ZM185.87,253a40.31,40.31,0,0,1-1.51-15.59c.5-9.06,2-18.62,7.55-28.67,4-9.06,10.05-17.6,15.58-26.66,2.52-4.52,6.54-8.05,10.07-11.57,2,1.51,4,3.52,7,4.53l6-5c-.5,0,0-.5,0-.5a32.37,32.37,0,0,0-3.52,1c-3,2.52-4.52,2.52-5-.5l2-1.51.51-.5c-4.53-3-4-5.53.5-10.06,8-8.55,16.09-16.6,24.65-24.64,1.5-1.52,4-2.52,6-4l1,1c-2.51,2-5,4.52-8.54,7,.5,0,.5.5,1,1,1-.5,3-1,4.53-1.5-.51.5-.51.5,0,.5-1.51,1-3,1.51-4,2.52-1.51.5-1.51,1.5-2.52,2,.5.51,1,1.51,1.51,1.51,3-1.51,5.53-3,7.54-5.53,1-.5.5-2.52.5-5a18.21,18.21,0,0,1,3-2.52,6.38,6.38,0,0,1,.5,3c1.51-.5,2.52-1.52,4-2.52a50.56,50.56,0,0,1,6.54-4.52c2-1.52,4-2.52,6-4.54-.51,0-1-.5-.51-1-3,1.51-5.53,3.52-9,5v-1c3.52-3,7.54-5.53,11.06-8.54,0,2,0,3,.51,4a21.56,21.56,0,0,1,3.52-2,24.36,24.36,0,0,1,5.53-3.52c4-.51,5.53-2,5-5.54,2.51-1,5.53-1.5,2.51-5,2.52-.5,4-1,5-.5,2.52,1,3-.52,4.53-2.52.5-1.52,2.52-3.52,3-3.52a9,9,0,0,1,5.53.5c1,0,0,1.5-.5,3,0,.5-1.51,1-2.52,1-1,.5-2.51,0-4,0-1.51,5-3,10.56-9.56,12.07a8.84,8.84,0,0,1,.5-3c-1,1-2.51,1.5-3,2a57,57,0,0,0-9.05,6,.7.7,0,0,0,0,1c2,0,4.53-.5,7.55-.5-4,3.52-7.55,6-12.07,9.56,1-3.53,2-5,2.51-8.06-4.52,1-7.54,3.52-11.06,6.54-3,3-8.56,5-6,10.06-9.56-.5-14.58,5.53-19.61,13.08a3.88,3.88,0,0,0-1.51.5c1-2.51,1-4,1.51-7a81.94,81.94,0,0,1-9.06,5,19.5,19.5,0,0,0,7.05,5c-3,2-4.53,2.51-6,3.52,3.52,1.51,2.51,4-1.51,7a183.73,183.73,0,0,0-13.58,14.08v-.5c-1-3-3.52-3-7.54-1.51a13.89,13.89,0,0,1,3,2.51c-1.51,1.52-2,3-3.53,5.54l8.05-6.54c-1.51,3-4,6-6,9.06H214c0,.5-1,1-1,1,1,2.52.5,4.52-3,6.54a1.75,1.75,0,0,1-.5,1c0,5-6,8.05-8,12.58,3.52,2,1.51,5-7,10.57,0,.5.5,1,1,1.5,1,2,2,3.52-1,6.54-2,2-1.51,5-1.51,8.05.5,1,1,1.5,1,2.51a21.94,21.94,0,0,0,1,15.09c6.54,14.59,18.11,24.15,32.69,31.18,4,1,7.55,1.51,11.57,3-11.06,3.52-18.61,2.51-25.65-2-3.52-2.52-7.55-4-11.07-6.54-3-3-6-5.54-8-9.56C191.4,264.06,187.88,258.53,185.87,253Zm18.6-58.84h1c6.54-6,8.55-9.56,7.55-13.08-1.51,2-2.52,4.52-4.53,6.54C207,190.12,206,192.14,204.47,194.16Zm28.17-34.71a20.73,20.73,0,0,0,2.52-4.52,1.84,1.84,0,0,0-1.51-.51,34.16,34.16,0,0,0-3.52,4.53C231.13,159,231.64,159.45,232.64,159.45Zm23.64-15.59c.5,0,.5.5.5,1.51a4.38,4.38,0,0,1-1.5,3l-1,.5c-.5-1-1.51-1.51-1-2.52A15.74,15.74,0,0,0,256.28,143.86Zm64.38-50.3a16,16,0,0,1-3-1.51l5.53-4c.51,0,.51,0,1,.5Zm5-1c.5,1,.5,2,.5,4a44.25,44.25,0,0,0,6-2,8.08,8.08,0,0,1-11.57,1C322.67,94.07,324.18,93.56,325.69,92.55Zm1-5.53s.51-.5,0-.5L335.25,81a.49.49,0,0,0,.5.5l-3.52,5A20.77,20.77,0,0,1,326.69,87Zm4,2c2-.5,4.53-.5,7-1l-.5.5c-2,1.51-4.53,2-6,2.52-1,.5-2,0-2.51,0C329.21,90.55,329.71,89,330.72,89ZM278.21,492.41c.5-2,21.67-46.12,21.67-47.63h-1.51c-1,2-23.18,46.13-23.68,48.63-.51.51,1,1,1.51,1C277.2,493.92,278.71,492.91,278.21,492.41ZM343.8,86.52c-1-1.51-1.51-3.52-2.52-5l2.52-1a15.46,15.46,0,0,1,2,5A3.8,3.8,0,0,0,343.8,86.52Zm6-5.53c-1.51-5.53,3-11.07,9.56-12.57,1-.51,2,0,3,.5,2.51,1,4,0,5.53-3.52,0-.5,1.51-1.52,2.51-2l-.5.5h5.53c0-1-.5-1.5-.5-3.51,3-1,6-1.51,9-2.52a26.29,26.29,0,0,0,5-3c3.52-3,5.54-4.52,8.55-2,2,1,4.53-.5,5.53-3a17.92,17.92,0,0,0,.51-3c4.52-1,8.55-2.52,13.07-3.52,1-2.52,4.53-4.53,8-4,2,0,3,1,4.53,1,1-1,3-2,3.52-2.52.5-3,3-3,5-4.52,7-2.52,14.08-3,21.12-8.55,0-.5,1-.5,2-1a8.12,8.12,0,0,0,7-4.53,7.29,7.29,0,0,0,2-1,7.25,7.25,0,0,1-1,3c6-.5,10.06-3,10.56-7.54,5-2,9.56-3,14.59-4.54.5.5.5.5,0,1a57.12,57.12,0,0,0-6.54,2.5l-6,1.52c.5.5,0,1,0,1.5,1,0,2,.5,2.51,0a139.54,139.54,0,0,0,13.58-4,1.55,1.55,0,0,1,1-.5c2-1.52,2.52-5,5.54-3.52,1.51,1,2,2.52,3,4a10.93,10.93,0,0,1,4-2.52,12.81,12.81,0,0,1-6-4.52c9.56-1.51,18.11-4,26.16-4C542.46-.49,553.53,0,562.58,3c1,0,1.51,0,1.51.5,2,4,7.55,2.51,10.56,5,4,4,11.06,4.52,10.56,12.08a17.28,17.28,0,0,1-1.51,6.53c0,.5-1.51,2.52-3,2.52-5,.5-10.56,1-16.1,1-1,0-1.51-1-2.51-1.51-5.54-4-14.08-4-21.63-5a125.68,125.68,0,0,0-19.61,0c-5,0-10.06,1-15.6,1.5l-31.68,6a69.69,69.69,0,0,0-13.58,4c-1.51.51-4,1-5.53,2-2.52,2.52-4,1.52-5.54.5h-.5c-3.52,4-7.55,2.52-10.56,4-7,3.51-13.58,7-20.12,10-3.52,1-8.05,3-11.07,1a8.87,8.87,0,0,0-3,.5,67.85,67.85,0,0,1-7.54,1.51l-1.51,8.54c-.51,0-.51-.5-1-.5-1.51,1-2.52,2.52-4,3-3.53,1.51-8.06,3.52-11.07,3-3.52,0-5,1.5-6.54,4-2.51,3-4.52,3.52-8,4-4,.51-8.56,2.52-13.09,3.53Zm15.09,284.67c-1-1.5-49.45,47.43-57.5,68.56C311,428.68,361.4,367.16,364.92,365.66ZM376,353.09a5.17,5.17,0,0,1-2-.51c-2,1.51-3,3.52-4,4.53a1.09,1.09,0,0,0,1,1C373,356.6,374,354.6,376,353.09ZM374,57.35l-.5-2c3-3.52,8-3.52,11.57-6,.5,0,.5.51.5,1C382,52.82,378,54.83,374,57.35Zm80-32.69-5.54,1c4.53-5.53,9.56-7,15.59-4.52a17.39,17.39,0,0,1-4.52.5c-2.52.5-4,0-6,0C453.44,22.64,454,23.65,454,24.66Zm71.91,400.86a1.86,1.86,0,0,0-.5-1.52c-.5.5-2,1-2,1.52-.5,2-1.51,3.52-1.51,5C527.37,430.54,522.85,426.52,525.86,425.52Zm41.25-73.94-7.55,19.62a2.7,2.7,0,0,1-2-1.52c-2-1.5-3.52-1-5.53,1.52-1,1.5-2.52,2-2.52,2.51a16.53,16.53,0,0,1-3-4,17.94,17.94,0,0,0-4,5l-.5.51c.5,3.52-5,8-3,11.06.51.51-.5,1-.5,1.51-1,2-2,3.52-2,5l-1.51,5.54c-1,4-2,7.55-2.52,11.07,5.54-1.51,7.05,1.51,5.54,5.53-1,1.51-3,3-3,3.52,1,4.53-2,5-6,5a12.54,12.54,0,0,0-.5,4,51,51,0,0,1,5-2.52c0,1.52-.5,3.53,0,3.53,2,1,5,1,8.05,1.51,2,4.52-2.52,10.56-5,15.59-1.51,4,0,5.54,2.51,6.54,1.51.5,4.53.5,7.55.5-.51-1.5,0-4-.51-4-4,1-2.51-2-1.5-4,1-5,1.5-10.07,4-14.59,3.52-5.54,4-10.56,5-15.6s3.52-10.55,5-16.09c1.51-3,2.52-6.54-2.51-7,2.51-3.52,5-5.53,7.55-8.05.5-1,.5-2,1-3,.51-1.51.51-2.52,1-4.53.5-1-1-2,0-2.52,3-3.52,1-5.52,1.51-8,0-2-.5-5,.5-6.54C572.64,354.6,569.12,353.59,567.11,351.58Zm-29.17,51.3a46.92,46.92,0,0,0,3.52-10.07C544,395.83,544.48,396.85,537.94,402.88Zm9.55,20.62c-3,0-5-.5-6.53-.5,2.51-6,4.52-11.57,6.53-17.1C548.5,411.43,543,418.47,547.49,423.5Zm25.15-76.45c-1-1.51-.5-5-2-5.53-2.52-1-2.52-2.51-2-5,.5-5,1.51-9.56,2-13.58-4.53,4-4.53,4-4.53,8.55l-.5.51c-2,8-4.53,15.08-6,22.12l-3,7.55a1.87,1.87,0,0,0-1.51.5c0-2.52-.5-4,0-6a1.84,1.84,0,0,1-1.5-.5c-1,7-7,4.52-11.57,8.56,1,1,2,3.52,4,3,4-.5,8,1,13.08-3,2.51-2,4.53-5.54,2.51-7.56-.5-.5-.5-2-.5-2.51a68.11,68.11,0,0,0,5.54-7,11.85,11.85,0,0,1,4.52,1Zm-29.17,37.72c0-1.51,1.51-4,2.51-6,.51-.51.51-.51,1-.51v3c.5.5.5,2,.5,2.52a3.78,3.78,0,0,1-.5,2.51,9.2,9.2,0,0,1-3.52,1C543,387.29,543,385.78,543.47,384.77Zm6-31.68c1,1,1.51,1.51,2.52,1.51.5,1,2-.51,2.51-1a6.67,6.67,0,0,0-1.51-2C552.52,351.07,551.52,352.08,549.5,353.09Zm3,27.16c1.51-1,3-1.51,6-2.52-1,1.51-1,2.52-2,4-2,0-3-.5-4.52-.5A1.75,1.75,0,0,1,552.52,380.25Z" transform="translate(-0.22 -0.04)"/><path class="cls-1" d="M1127.35,462.23s.51.5,0,.5c-3,2-.5,5-.5,7.55a4.14,4.14,0,0,1-2.52,4c-2,1-2,2-.5,4a9.85,9.85,0,0,1,.5,4v2l1.51-1.52a6.25,6.25,0,0,0,.51-3c0-.51.5-.51,1-1v1l-3,14.59c-.5,2.51-.5,4.52-3,6.53-.51.51-.51,2-.51,3,0,2,.51,3.52-1.5,5a1.74,1.74,0,0,0-.51,1l1.51,8a1.79,1.79,0,0,1-.5,1c-1.51,0-1.51,1-2,2l-4,7a3.87,3.87,0,0,0-1,2.52l-1.51,3c-2,1.52-2.51,3-1.51,5a3.79,3.79,0,0,1-1,2,84.36,84.36,0,0,1-7,6c-.5,0-1,.5-1.51.5-2-1.5-2,0-1.51,1.52a4.15,4.15,0,0,1-2.51,4c-3,1.51-5.53,3.52-8.05,5-.5.5-.5,1.51-1,2l-1,1.51a28.55,28.55,0,0,0-7,2c-2,.51-3.52,2-5,3l-5-1a61.66,61.66,0,0,1-13.58,0c-2-.5-4.52.5-7,.5h-7c-.51-.5-1,0-1.51-.5-6.54-2.51-13.08-5-19.61-8a30.76,30.76,0,0,1-6-2.52c-.5,0-1.51-.5-2,0-3,2-5.54-.5-7.55-2-3.52-2.52-7.54-5-10.56-8.56-2-3-5.53-5.52-8.05-8.54A88.81,88.81,0,0,1,974,520.57c-3-4-5-9.06-7.54-13.58a.49.49,0,0,1-.5-.5c-4.53-3.52-5.54-9.56-8-14.09a129.24,129.24,0,0,1-7-14.58,16.37,16.37,0,0,1-2-7c-.5-4-2.51-7-4-10.57-.5-.5-.5-1-1-2a14.84,14.84,0,0,0-1-4.54c-1-3-2.52-6-3.52-9-1.51-5-2.51-10.07-3.52-15.09-1-3.52-3-6.54-3-10.06,0-4-2-7.55-2.51-11.07-1-4.52-2.52-9.06-3.53-14.08a7.5,7.5,0,0,1-.5-3.52c-.5-2.52-.5-5.54-1-8.55,1.5-4-1.51-7-1.51-11.06,0-3.52-1.51-7-2-10.57-1-7.54-1.51-14.58-2.51-21.62L917.62,330c0-2,.5-4,0-5.53-2-5-1-10.06-1.51-15.09,0-1-.5-1.51-1-2.51l-2,1.5-8.54,13.58c-.51,1.51-1.51,3-2,4.53-3,5.54-6,10.06-8.56,15.59-1,2.51-3,5-4.53,7.55-1,1.5-2,4-3,5.53a64.81,64.81,0,0,1-5.53,10.06c-.51,1-1.51,2-2.52,3.52l-.5.5-4.53,10.06c-1.51,4-3,8.55-6.54,12.07a3.09,3.09,0,0,1-.5,2c-.5,1.5-.5,3.52-1.51,5l-7.54,14.59-7.55,20.12c-2.51,7-5.53,14.08-8.55,21.11a99,99,0,0,1-3.52,11.58l-3,7-3,8c0,.5-.5,1-1,2-2,2.52-2,5.54-2.52,8.56,0,2.51-1,5-1.5,7.54-1,2-1.51,4.53-2.52,6.54-.5,2-.5,4-1,6-2,4.54-6,6.54-9.56,9.06H812c-.5-.5-1-.5-2-.5-1.51-.5-3.52-.5-5-1.52-1.51-.5-2.52-.5-3,1a3.92,3.92,0,0,1-2,2l-2-3c-.51-1.5,0-3,0-4,0-.5-.51-1-.51-1.5l-1.5,1.5a12.28,12.28,0,0,1-.51,4c-.5,2.52-1,2-3.52,1.52-2.51,0-4-1-5-3.52h-.51c-3.52-.5-3-2.52-3-5a4.43,4.43,0,0,0,.51-2.5c0-.52-.51-1-1-1.52a1.08,1.08,0,0,1-1,1c-.5.52-1,1-1.5.52a7.18,7.18,0,0,1-3-1c-.51-.5-.51-1.5-1-2.51V504l-1.51-14.08a14,14,0,0,1-.5-4.53c-1-3-1-6,2.51-8,3-1.52,4.53-4.53,6-7a28.78,28.78,0,0,0,4-6.55c1-1.5,1-3.52,1.5-5l6-11.57c1.51-2.51,3.52-4,4.52-6.54,1-1.51.51-3.52,1-5v-1.51c3-2,3-5.53,4-8,2.52-5,4.53-10.06,6.54-15.09,0-.51.51-1,.51-1.51a60.87,60.87,0,0,0,6.54-15.59c1-2,2.51-4,4-6.54a29.12,29.12,0,0,0,2-7c1.51-3.53,2.51-7.05,4-10.57a21.14,21.14,0,0,0,2-3.52l4.53-10.56c2-4.53,4.53-8.55,7-13.07,0-.51.51-1,.51-1.52-1-4,2.51-6.54,3.52-9.55,1-2,2.51-4.53,3-6.54.5-3,2-5.53,4-8.55,2-2.51,3-5.53,4.52-8.55l4.53-11.57,3-7.54,4.53-9.56,3-6.54a117.88,117.88,0,0,0,5-12.07L881.41,250l5.53-14.58c.5-1.51,2-2.52,2.51-4,2.52-5,4.53-10.56,6.54-15.59a8.39,8.39,0,0,0,1-2.51l1.51-4,3-8.55,3-11.07c1-3.52,1.51-7,2.51-10.06.5-1.5,1.51-3,1.51-4.52,0-8.55-.5-16.59-.5-25.15,0-1-.51-2.51-.51-4-.5-2,0-4-.5-6-.5-3-.5-6-3.52-7.56a94.24,94.24,0,0,0-10.06-5,20.56,20.56,0,0,0-4.53-2.52,100.91,100.91,0,0,0-12.07-2c-4.52-.51-8.55,0-13.08,0a136.66,136.66,0,0,0-14.08,2,28.77,28.77,0,0,0-6.53.5c-7.55.51-14.59,2.52-21.63,4.54-4.53,2-9.56,3-14.09,4.52-2,.5-3.52,2-5.53,2.52-4,1.5-8.55,2.51-12.57,4a38.87,38.87,0,0,0-10.56,4.53,20.67,20.67,0,0,1-8.56,3.52c-.5,0-1,.5-1.5.5-5,3.52-9.56,6.54-14.08,10.06-9.56,6-18.62,11.57-27.67,18.11-8,5-16.09,10.56-24.14,16.09-1.51,1-3.52,2-5.53,3.52-2.52,1.51-4.53,3.52-7,5.53-1,1-2.52,1.51-4,2.52l-10.56,7.55h-.5c-4,4.52-7.54,8.54-11.57,12.56-1,2-2.51,3.52-3.52,5.54-.5,0-.5,1-1,1-2,.51-2,2-3,3.53a73.39,73.39,0,0,1-5.53,7.54L645,252c-1,1.5-2.51,2.5-4,4-.5.5-1,.5-1,1-2,3-3,5.53-5,8.55l-6,9.06a4.47,4.47,0,0,0-.51,2.52c-.5,1-.5,2-1,3a20.91,20.91,0,0,1-.51,2.52,3.81,3.81,0,0,0,2.52.5h1c8.56-1,17.1-2.51,25.15-6,5-2.52,10.06-5,15.09-7a.5.5,0,0,1,.51-.51c7-1,12.06-5.53,18.6-8.55,1-.5,2-1,3-.5,2,0,3.52-1.51,5-2.51a45.25,45.25,0,0,1,5-2.51c1.51-.51,3-1.52,5-2,6.54-3.52,13.58-6.54,20.62-10.06,2-.5,2.52.5,3,2.52,0,.5.5,1,.5,1.5a5,5,0,0,0,2.52-2c.5,0,0-1,0-1-1-1.5-2-2.5.5-3,4.52-1.51,4.52-1.51,4.52,2.51.51,1.52,1.51,2,3,1,.5,0,.5-.52,1-1s.5-1.5,1-2l-2-.51c-2,.51-2.51-.51-1.51-1.51a12.81,12.81,0,0,1,3.52-2,3.06,3.06,0,0,1,2-.5,30.93,30.93,0,0,1,6-2.52c3-.5,6-.5,9.06-1.51a6.41,6.41,0,0,1,6,0c1,1,3,.51,4.53,0,1,0,2,0,2.51,1h.5c1-.5,2-1.51,3,.5.51,1,2.52,1,4,1.51,2.51.5,5.53.5,8,1.51a107,107,0,0,1,11.06,5c5,2.52,9,6,13.58,9.56,2.52,2,4.53,4.52,4.53,8l-.51,3.52v1c.51-.5.51-.5,1-.5,0-.51,1-1,1-1,.51.5,1.51,1,1.51,2a37.56,37.56,0,0,1,.51,7.54c-.51,2-1.51,4-1.51,6,0,4.53-1.51,7.54-5,10.56-1,1-1,3.52-3.52,2.52v1c1,2.52.5,3-1.51,4-1.51,1-2.52,2.52-4,3.52,0,0,0,1.5.51,1.5,2.51,1.52.5,2-.51,2.52a3.83,3.83,0,0,0-2,.5c-2,.5-4.53,1-5,4.54,0,2.5-2.51,4.52-5,5.52-.5.51-1.51,1.51-1.51,2,0,2-1,2.51-2.51,3-1,0-2.51,1-3.52,2-.5,1-1,2.51-2.51.5-1-1-1.51.5-1.51,1.51l-1.51,7c-.51,1-.51,2-2.52,2-1.51,0-2.51,2-4,3.52a28.15,28.15,0,0,1-4,3,3.91,3.91,0,0,1-2,2,10.66,10.66,0,0,1-2.51,1.51s-1-1-1-1.51a11.38,11.38,0,0,1-1.51-2.51,2.5,2.5,0,0,1,.51-1.52,1.55,1.55,0,0,1,.5-1h-1.51c-.5,0-.5.5-1,.5v-1a13.64,13.64,0,0,1,.51-4.52c0-1,1-2,1.51-3a60.14,60.14,0,0,1,5-7.05,1.79,1.79,0,0,1,1-.5c1-1,4,0,3-3v-.5l4.53-5a10.76,10.76,0,0,0,3-2h.51c-.51-3.52,3.52-5,4.53-7.54,2.51-4,5-8.05,8-12.08a5,5,0,0,1,2.51-2,.5.5,0,0,0,.51-.5c1-2,2.51-4.53,3.52-7l1-1.52c1-2.5,2.52-5,3.53-7.54.5-1.5,2-3,2-5a32.69,32.69,0,0,0,1.51-10.07c0-2-2-3-4-3.52a21.35,21.35,0,0,1-8.55-5h-1c-2.52-.5-5,.5-7.55-1-1-1-3.52,0-5.53,0-1,0-2-.5-3-.5-2.51,0-4.53-.5-6.54,0-3.52.5-7,2-10.06,2.52-.5.5-1.5,0-2,0s-1.5,0-1.5.5c-1,1.52-2,1.52-3.52,1-1.51-1-3,0-4.53,1-3,1.5-6,2-9.06,3-4.52,1-9.55,2.51-13.57,5l-3.52,1.51c-1.51.5-3.53,1-4.53,2-2.52,3-6,3.53-9.56,5.53l-13.07,7a122.1,122.1,0,0,0-10.57,6.54c-4.53,3-9.56,5.54-13.07,9.56l-1.51,3c-1,1.51-2,4-4.53,4.53-2,.5-3.52,2.51-5.53,3.52a10,10,0,0,1-4.53,2.52,61.34,61.34,0,0,1-10.06,3.52,1.79,1.79,0,0,0-1,.5c-2.51,2.51-5.53,2.51-8.54,2.51a51.11,51.11,0,0,0-8.56-.51c-2.51.51-4-.5-5.53-2l-10.06-7a7.18,7.18,0,0,1-1.5-2c-2-2-4.53-4-5.54-7,0-1.51-2-2.51-2.51-4a33.68,33.68,0,0,1-5-11.57c-2-5-1-10.06-1-15.09-.5-5.53,1-10.56,2.52-15.6l1.51-4c.5-1.5.5-3,1-4a2.6,2.6,0,0,1,1-2c2-3.52,4.53-7,6.54-11.06.5-1,0-3,.5-4.54,1-6,5-10.56,9-15.08,2.51-2,4.53-4.53,7-6.54l3-1.51c1.51-.5,3.52-1,5-2.52l9-8,11.57-10.56c3.52-3,7.55-5.53,11.07-8.55,1.51-1,2.51-3.52,4-5a44.56,44.56,0,0,1,5-3,26.76,26.76,0,0,1,6.54-3.53l7-4.53a71.46,71.46,0,0,0,10.06-7c4-2.51,8-5.53,12.57-8.55,1.51-1,4-1.5,5.53-2.52L734,125.24h.51c5.53-1.5,9.05-6,14.58-7.54a42.91,42.91,0,0,0,8.55-3.52,15,15,0,0,1,7.55-3.52,18.08,18.08,0,0,0,9-3.52,3.85,3.85,0,0,1,2.51-1c2.52-.5,5-1,7.05-3.52,1.51-1,3.52-2.51,5.53-2,3.52,0,6-2.52,9-3.52a1.83,1.83,0,0,0,1.51-.51l17.61-1.51c2,0,4-1,6-1.51l7-1.51c5-.5,10.06-.5,15.59-.5h.51c6,1.51,11.56,0,17.6.5l17.1,3c2,.5,4,2.52,6,3.52,3.52,2,7.55,3.52,11.57,5.54l6,3,4.52,4.53c3,2.51,6.54,5,10.06,8,3,2.51,6.54,5.52,9.56,8.54,1,1.52,2.52,3,1,5-.51,0,0,1,.5,1.5,1.51,2.52,4,5.54,5.53,8.55a57.75,57.75,0,0,1,2,9.06c.51,4,.51,8,1,12.06,0,5,.5,10.07,1,15.09,0,2-1,4-1,6.54,0,1,.5,2.52.5,4a13.55,13.55,0,0,1-2,9.06c0,.5-.5,1,0,1.51,1,2,0,3.52-1,5.53-1,3.53-2.52,7.55-3.52,11.57-1,2.52-3,4.52-1.51,7-3,3-2.52,7.55-4,11.07s-2.51,7-5,10.56c-1.51,2-1.51,5-2.52,8,0,1-.5,1.52-1,2.52a4.4,4.4,0,0,1-4.53,3.52c0-.5-.5,0-1,0,0,.5.5.5.5,1,1,1.51,3,3,0,5-1,.5-.5,3-1,4.53a3.79,3.79,0,0,1-1,2c-1,3-1.51,6-3,8.56a10,10,0,0,0-1,5c.5.51,1,1,1,1.52.5-.51,1.51-.51,1.51-1a101.23,101.23,0,0,1,5-10.57s.5-2,1,0c0,1.52,2,1,2.52,0l1.51-3.52c0-.5,1-.5,1-1l1.51-1c-.5-1-.5-1.52,1-1.52l.5-1c-1-1.51.51-2,1.51-3a63,63,0,0,1,5.54-6.54v-2c0-.5.5-1,.5-1.5,0,.5.5.5,1,1a1.75,1.75,0,0,0,1,.5l.5-2c-1.5-1.51-1-2,1-3a22.48,22.48,0,0,1,3.52-3.52c.5-.52,1.51-.52,2-1,1-.5,2-.5,2-1,1-3.52,3.52-6,4.53-8.55,1.51-4,5-5.53,6.54-8.55s5-3,7-5.53h1.51a1.84,1.84,0,0,1-.5,1.5c-1,1-1.51,3-3.53,3a2.27,2.27,0,0,0-1.5,1.51c-1,2.52-1.51,5.54-3.53,7-1,1.51-1,4-4,4-1,0-2.52,3-3,4.54-.5,1,.5,3,1.51,3.52a4.32,4.32,0,0,0,3.52,0c1,0,2-.5,0-1.52-1,0-1.51-1,0-1.5,2-.5,3-1.52,3-3.52a3.21,3.21,0,0,1,2.52-3.52c.5-3,3.52-3,5.53-4.53,0-.5,1-.5,1.51,0,2,.5,3,1,1,3-3,3.51-5.53,7-8,10.55l-1.51,2c-.51,1-.51,2-1.51,2.52-4,1.5-3.52,5.53-6,8.54a1.56,1.56,0,0,1-.5,1c-4,1.51-6.54,5.54-9,9.06-1.51,1.5-3,4-6.54,4-1-.5-2.52,0-1,2,1.51,1.5.51,4-1,5.52a52.85,52.85,0,0,0-5.54,4.53.49.49,0,0,0-.5.5l-4.53,10.06s.5,1,.5.5c1-.5,3-1,3.53-2,1.51-4,5-4.52,8.05-4.52,4,0,6.53-2,9-4.53a4.56,4.56,0,0,1,4-2c2.51,0,5.53-1,8.05-.5,3,1.5,6,3,8,6.53a2.6,2.6,0,0,0,1,2l1,2.52.5,5a14.45,14.45,0,0,1,1,4.52c.5,9.56.5,19.12,1,28.17v12.58c0,1.5.51,3,.51,4.52a14,14,0,0,1,.5,4.53c.5,4.52,0,9.06.5,13.58,1,4.52,1,9.05,1.51,13.58,0,1.51-.5,2.51,0,4a25.5,25.5,0,0,0,1,5.53,7.19,7.19,0,0,1,1,3,19.43,19.43,0,0,0,1.51,10.56c1,3,.5,6.54,1.51,9.05a10.51,10.51,0,0,0,2,5.54c1,2.52.5,4.52-1.51,6-1.51,1.5-2,5,0,6.54,3,1.5,3,3.51,3,6.53a1.75,1.75,0,0,1,.5,1c.5,0,.5-.51,1-.51a1.85,1.85,0,0,1,1.51-.5c0,.5.5.5.5,1.51v6.54c0,.5-.5,1,0,1,3,3-.5,6.54,1.51,9.55.5,1.51,1.51,3,2,4.53,0,.5.5,1,.5,1.5.51,1.52.51,5.54,2.52.51a3.77,3.77,0,0,1,2,1l4.53,12.07v1c3,2.52,2.51,6.54,3.52,9.56.5,1,.5,2,1,3a73.82,73.82,0,0,1,4.53,6.53c.5.51,0,2-.5,3A6.06,6.06,0,0,1,999.6,503c0,.5-1,.5-1.51.5l-3-2c-1.51-1-2.52-1.51-2-4a7.86,7.86,0,0,0-3-6,20.53,20.53,0,0,1-3.52-5.54c-1.51-4-2-8-4-12.06-1.51-2-2-5-3.52-7.05a15.57,15.57,0,0,1-2.52-6c0-1.51-1-2.51-2-3.53,0-.5-.5,0-.5,0-.5.51-1,1-.5,1.52l1.51,8.55c0,.5.5.5.5,1-2,3.52,2,4.53,3.52,6.54,1,2,1.51,4,0,5.54a4.74,4.74,0,0,0-.5,6.54,1.85,1.85,0,0,0,1.51.5c0-.5.5-1,.5-1.52l-.5-3.52a1.08,1.08,0,0,1,1-1c.51,0,1,1,1,1-.5,2-1.51,3.52,0,5.54-2.52,2.52,2,4,2,6-.5.51,1.51,1,2,1.51.51,0,1,0,1,.5a23.4,23.4,0,0,0,3.52,3.53c1,1,1,1,.5,2.51s-.5,3.52-1,5a1.08,1.08,0,0,0,1,1l.51-.5c0-.5.5-1,.5-1.5a21.71,21.71,0,0,1,.5-2.52l1.51,3.52a1.74,1.74,0,0,0,.51,1,23,23,0,0,1,2.51,3.52,7.37,7.37,0,0,1,1,3.52,2.5,2.5,0,0,1,.51,1.52c-1.51,1-1.51,2.51-1.51,4v1a1.87,1.87,0,0,0,1.51-.5c1.51-2,2.51-2,4,0a17.45,17.45,0,0,0,4,4.53c2.52,1.51,3,4,5,6h2c1,.5,1,1,1.51,1.5-.51,0-1,0-1,.5-.5.51-1.51.51-1.51,1a3.74,3.74,0,0,0,1,2c1.51,1,3,2.52,5,3.52a7.18,7.18,0,0,0,3,1,23.12,23.12,0,0,0,.5-2.52v-1.52c0-.5,1-.5,1-.5,2,2,4.53,3.52,6.54,5.54a1.21,1.21,0,1,1-1.51,1.5l-3.52-2a1.75,1.75,0,0,0-1,.5c0,.5.5.5.5,1l5,3c.5.5,1,.5,2,.5a2.49,2.49,0,0,0,1.51.5c.5,2.52,3,1,4.52,2l.51-.5c-1.51-2.52,2-2,2-3.52h.5c0,2,1,1,1.51.5,1-.5,2-1.52,2.52.5,0,1.51,2.51,2.52,3.52,1.51.5,0,.5-1,0-1.51-1.51-1.5-.5-2,1-2,2.52-.5,5-1,7,2a1.79,1.79,0,0,0,1,.5c1.51.5,2,1,.5,1.52-.5.5-1,1-1,1.5a1.75,1.75,0,0,0,1,.5,3.87,3.87,0,0,0,2,1c1,0,2,0,2-.51.5-.5,0-1.5-.51-2,0-.5-.5-.5-1-1,0-.51-.51-1-1-1.51,0-.5,1-1,1-1,.5,0,1,.5,2,1,0,0,.5,1,1,1,2-1.5,4,0,6,.51.5,0,1.51.51,2,0,1-.51,2,0,2,1v.5a1.74,1.74,0,0,0,.51,1c.5-.5,1-.5,1-1v-1l-1.51.5a15.58,15.58,0,0,1,5-2.52c5.53-1.5,8-6,11.56-9.56l6-8c1.5-2.52,2.51-5.53,4-8l3.52-9.56,1.51-2c.5-1.52,1.51-3,2-4.54a52.16,52.16,0,0,0,3-5.53,13,13,0,0,1,1-3.52c1.51-4,2.51-8,4.52-12.06.51-2.52,2.52-4.54,3.52-6.54l4.53-10.57,1.51-5.53c.5-2,0-4,.5-6.55v-1l1.51,1C1126.85,456.69,1127.35,459.71,1127.35,462.23ZM721.47,249.48a12.42,12.42,0,0,1,2,3.52c1.51-.5,2.52-.5,3-1,.5-1,.5-2,1-3H722Zm39.23,91c1,0,2,.5,3,.5-.51,1-.51,2.52-1,3-2,1.51-4.52,2.52-6.53,4l-1,1.51c-.5,1-.5,2.51-1.51,3.52-.5,1-1.51,1.51-2.52,2.51h-1c-1.51-1-1,0-1,.5a2.64,2.64,0,0,1-1,2c-.51,2-1,5-4,3.52-.5,0-1,.5-1.51,1a28.31,28.31,0,0,1-4,3.52h-2c.5-1,.5-1.5,1-2l5-4.54c.5,0,.5-1,.5-1h-1.5v-.5c-.51.5-1.51.5-2,1a1.84,1.84,0,0,1-1.5.5c0-.5.5-1,.5-1.5a91,91,0,0,0,10.06-9.56,53.73,53.73,0,0,0,4.53-5.53c1.51-1.51,4-3,5.53-5,.5-.5.5-1.5,1-2l1-1c0,.52.5,1,.5,1.52a7.14,7.14,0,0,0-1,3c-.5,0-.5.5-.5,1Zm150.38-40.23c-1,0-2-.5-3-.5-3,0-3.52,2.5-5.53,4,0,.5-.51,1.5,0,2a1.73,1.73,0,0,0,1,.52c1.51-.52,3-.52,4.53-1.52C909.07,303.8,909.57,302.28,911.08,300.28Zm8-12.58c.5,0,1.51-1,1-1.51,0-5,4.53-4.52,6.54-7,3.53.5,2.52-3,2.52-4,0-2.52.5-4,2.52-5.54a13.34,13.34,0,0,0,4-3.52c2-2,3.52-5,5-7,1-1.51,2-3.51,3.52-4,2-.51,2-1.51,1.5-3,0-1.52,1-3.52-1.5-2.52-1.51,0-7,6-7.54,7a17.57,17.57,0,0,1-1.51,3c-1,1.5-2,2.51-2.52,3.52-1.51,2,0,5-4,5a.49.49,0,0,1-.51.5l-3,2.52a1.74,1.74,0,0,1-.51,1,10.76,10.76,0,0,1-1.51,2.52l-6.54,8c0,.5-.5.5-.5,1,.5,2-2.51,4-1,6.54l-.51.5c-1,.5-1.51.5-2,1a7.4,7.4,0,0,0-2.51,3c0,.51,1.51,1.51,2,2.52a1.84,1.84,0,0,1,.5,1.5,3.83,3.83,0,0,1-1,2.52,1.08,1.08,0,0,0,1,1v-1l2.52-4.52v-3.53c.5.51.5,1,1,1a1.56,1.56,0,0,0,1,.5,1.08,1.08,0,0,0,1-1c0-1-.5-1.51-.5-2.52S916.61,288.21,919.13,287.7Zm32.69,168.49c-1-3.52-2.51-6.54-3.52-9.56l-1-1c-.5.5-1,1-1,1.51a8.53,8.53,0,0,0,.5,3.51l2.52,4.54c0,.5,0,1.5.5,1.5.5.5,1,1,1.51,1C951.32,457.19,951.82,456.69,951.82,456.19Zm10.57-234.38a3.06,3.06,0,0,1-2-.5v-1c1.51-.5,3-1.52,4.53-2a8.67,8.67,0,0,0,2.51-2,7,7,0,0,0,1.51-2v-1.5c0-.51-.5-1-1-1.52a4.54,4.54,0,0,0,2.51-.5c.5-.5,1.51-.5,2-1,.51-1.52,1-2.52,2.52-2.52a2.27,2.27,0,0,0,1.5-1.51A26.86,26.86,0,0,1,985,193.14a46.56,46.56,0,0,1,5-4c2.51-2,5-4,6.54-7.54.5-3,1.5-3.52,4.52-2.52h.5c1,0,3.52-4,3.52-5.53,0-.5,0-1,.51-1,1.5-.51,2-2,3-3.52,1-2,2-3.52,4.53-4,.51,0,1-1,1.51-1.51,1.51-1.5,2.52-3.52,4-5.53.5-.51,1-1,1.51-1,2.51,0,3.52-2,4.52-4,1.51-2,2.52-3.52,5-4,.5-.5,1-1.51,2-2,1-1,1.51-3,4-2.51a1.74,1.74,0,0,0,.51-1c.5-2,3-2.51,4.52-3,1-.5,2,0,2-2.52-.51-2.52,2-4.52,4.53-5,3.52-1,5-4,7-6,1-1,1-2,2.51-2s3-1.5,4-2c1.51-.51,3-1.52,4.53-2,2.51-.5,3-.5,2-3v-1.5l6-4.53c1.51-.5,3-.5,3.52-2.52s3-3.52,4.53-5.52h.5c1,1,1,1,2,.5a2.49,2.49,0,0,1,1.51-.5,8.05,8.05,0,0,1,2,3.51l-1.51,1c-1.51,1-2.51,2-4,2.51l-1.51,1.51c-2,.5-3.52,1.51-3.52,4,0,.5-1.51,1-2,1-2-.5-3,1-4,2.52a8.62,8.62,0,0,1-5,3c-1.51,1-2.51,1-3,3-.5,1-2,2-3,3a41.42,41.42,0,0,1-5,3.52.5.5,0,0,1-.5.52c-2.52-1-2.52,1.5-3,2.5-1.51,1.52-2,3-3,4.54l-1.51,1c-2-.5-2.51,0-4,1.51-2.52,2.51-4.53,6-8,7.54-.51.5-2,.5-1,2,0,.5-1.51,1.5-2.51,2.51a17.2,17.2,0,0,0-3,1.51l-4,5.54c-.5.5-1,1-1.51,1-1.51.5-2.51,1.5-2,3,0,1.5-1,2-2.52,2a4.13,4.13,0,0,0-3,2c-1,1-1,2.51-1.51,3.52l-.51.5c-3.52-1-3.52,4.53-7,4,.5,3.52-1.51,1-2.51,1.5a1.08,1.08,0,0,0-1,1c0,3.52-2.51,5.53-5,7.05-1,1-2,2.5-4,2.5-1,0-2,1.52-2.52,2.52s-.5,2.52-2.51,3v4c-3-.5-2.52,2.52-4,4,0,.5,0,1-.5,1-3.52,0-5.53,2.52-7.55,5a1.81,1.81,0,0,1-1.5.51c-1.51,0-1.51.5-1,1.5.5,0,.5,1,0,1a101,101,0,0,1-7,8.05c-.5.5-1.51,0-2.51.5a.49.49,0,0,0-.5-.5ZM974,223.33a1.08,1.08,0,0,1,1,1c-.51,4-5,7-8.55,5.53-.5,0-.5-2.51,0-3A49.05,49.05,0,0,1,974,223.33Zm325.91-168.5a.49.49,0,0,1-.5.51l-.5-.51c-1-3-1.5-5.53-2.52-8a6.9,6.9,0,0,0-1.5-2v2c1,2,2,4,.5,6.54-.5.5,0,2,0,3.52.5,0,.5.5,1,.5v-1a21.53,21.53,0,0,0,.51-2.51,8.29,8.29,0,0,1,1,2.51,13,13,0,0,0-1,3.52,28,28,0,0,0-2,6,8.06,8.06,0,0,1-1.51,4.52c-1.51,2.52-3,5.54-2,9.06,0,1-1,3-1.51,4.53a7.17,7.17,0,0,0-1,3c0,4-.5,8-4,11.07v.5c2.52,1.51.5,3,0,4.52v3.53c-.5,1-.5,2.51-1,3.52-.5.5-1.5,1-1.5.5a6,6,0,0,1-2.52-2.51c0-3,0-6,2.52-8.56.5,0,.5-.5.5-1,0-3.52.5-6.54.5-9.56V83c1-6.54,2-13.08,2.52-19.12,0-4.52,0-9.55-2-13.57-2-4.53-4-10.56-9-13.08-3.52-1.51-6.54-5.53-11.08-5l-3.52,3c-1.5,1-3.51,0-5,0a38.14,38.14,0,0,0-10.57,1.51,57.38,57.38,0,0,0-9,2,11.89,11.89,0,0,0-4,1l-.51.5c-2-2-3,1.5-5.53,1.5-.5-.5-1,.52-2,1-.5.5-1,1-1.51,1-2-1.5-4,2.52-6.54-2.52l-.5.5c-2,2-5,2.52-7.54,3.52l-9.56,3c-.5,0-.5.51-1,.51-1,1-1.5,2-3,2.51-2,.51-3.52,1-4.52,3-1,1-3,1.51-4.52,2-2,.51-3.52,1.51-5,2a1.84,1.84,0,0,1-1.5.5c-2,.5-3.52,1-4.53,3a2.76,2.76,0,0,1-3,2,21,21,0,0,0-4.53,2.52c-2.51,1.51-4.53,3.52-7,5.54-1.51,1-2.52,2.51-4.53,2.51-1.51,0-2.51,1.51-3.52,2L1134.4,86.52a3.88,3.88,0,0,1-2.52,1,5.4,5.4,0,0,1-3-1c-.5-.5,0-2,0-3,0-.5,1-1,1-2,.5-1.51,1.51-2,3.52-1.51a5.78,5.78,0,0,0,6-2.52c1.5-1.5,2.51-4,4-5,2-2,5-3.52,7.54-5.54h3c0-.5,0-1-.51-1-1.5-.5-3.52-2-4.52-1.51-3,1.51-6.54,2.51-7,7a3.91,3.91,0,0,1-4.53,3c-2-.51-2.51.51-3.52,1.51a2.32,2.32,0,0,1-2.51,1.5,12.38,12.38,0,0,0-6,2c-1.51,1.51-.5,5.53,1.51,6.54,2.51,1.51,2.51,2,.5,4a73.21,73.21,0,0,1-10.06,7,39.25,39.25,0,0,1-6,3.52c-1,1-1.51,2.5-2.51,3.52l-3,2.51c-2.52,1.51-4.53,3-6.54,4-1,1-2.52,1-4,2a21.09,21.09,0,0,1-3.52,3l-7.54,7c-4,3.52-9.56,6-12.58,10.56l-1.5,1a92.28,92.28,0,0,0-9.56,5.54,10,10,0,0,0-2,4l-1.51,1.51-2,1.5-7.54,5.54c-.51.5-1.51,1-2,2a6.21,6.21,0,0,1-4,3,35.61,35.61,0,0,0-6.54,2.52s0,1.52.5,2c1,1.5,1,1.5-.5,2-.51,0-1,.5-1.51.5a15.26,15.26,0,0,1-4,4c-.51,1-1.51,1.51-2,2l-6,6c-1,1-2.51-.5-3,1.51a10,10,0,0,1-2,4c-2,4-5,6.54-8.55,9.06-2.52,2-5,4-6.54,7a19.2,19.2,0,0,1-7,5.53,7,7,0,0,0-1.51,2c-2,2.51-2.51,5.53-6,7.05-.51,0-1,1-1.51,1l-1.51,1.5c-1,.51-2.52,1-2.52,2-.5,1.5-1,3.52-2.51,5-.51.51-1,1-1,1.52l-1-1c-.5-1-.5-2,0-2,3.53-1,1.51-4,2.52-6,.5-1.5,3.52-4.52,5.53-4.52a1.56,1.56,0,0,0,1-.5c-1.51-1.52,1-2.52.5-4,0-2,1-2,2-2.51,1,0,2-1.51,2-2,0-3,2.51-3.51,4-4,2,0,2.52-2,3.52-3.52,1-.51,1-2,1.51-3,.5-1.52,2,0,2.51-.52a5.84,5.84,0,0,0,3-3,11.89,11.89,0,0,1,5.53-6.54c1-.51,1.51-2,2.52-3,.5-1,1.51-1.51,2-2,1.51-2.51,5.54-2,6-5.53,0-1.51,1.51-3,2.51-4,4.53-4,8-8.56,13.58-11.06l1-1.52c.5-.5.5-2,1.5-1,.51,0,1-.5,1.51-.5l6-7.55,6.54-7a9.51,9.51,0,0,1,4-1c2.52,0,3.52-.51,3.52-3,0-1,0-2,1-.5,0,0,1,0,1-.52.51-2,2.52-2.5,4.53-3.52s3.52-2.5,5.53-3.52c0-1,0-2.5.51-2.5.5-1,2-.51,2.51-1,2-6,8.55-7,12.07-12.07,0-.5.51-.5,1-.5,2,0,3-1.5,4.52-2.51,1-.51,2-3,3.52-.51a1.08,1.08,0,0,0,1-1,4.15,4.15,0,0,1,2.52-5c1.51-.51.5-4-1-4.53,0,0-1,.5-1,1-.5,3-3,4-5,6h-4.52l-2-.5a3.82,3.82,0,0,1,.5-2.52l8.05-6c2.51-2,5.53-3,7-5a5.45,5.45,0,0,1,4.53-2l1.51-1.51a1.75,1.75,0,0,1,.5-1c3-.51,4.52-3,7-4.53a7,7,0,0,1,2-1.51c1-1,2.51-2.51,4-2.51,2,0,3.52-.5,4.53-2,2-2.52,5.53-3,8.05-4.52l3-3a8.91,8.91,0,0,1,7-4.53,1.87,1.87,0,0,0,1.51-.5c3-2,5.53-5,9-7,4-2.52,9-4,13.58-6.54a3.9,3.9,0,0,1,4-1c.51,0,1.52-1,2-1.52,3-1.5,6-2,8-5,2.52-4.53,5-4.53,7.55-5.54.5,0,.5,0,1-.5,4-3,8.54-4,13.57-5.53,5.54-1.51,10.56-3.52,16.1-5,4.52-1,8.55-2.51,13.07-3a32.42,32.42,0,0,1,10.06-2c8,0,16.1-.5,23.65,2.52,3.52,1.5,7.54,6.53,11.56,8.54,3.52,2,7,4,9.56,7l6.53,6.54C1298.86,46.29,1298.86,50.81,1299.86,54.83ZM1007.14,509c-.5.5,1,2,1.51,2.5l1-1,.5.5c.51,1.52,1,2,3,2,1,0,2.52,2,3.52,3.52.51,1,0,2.51.51,4a5,5,0,0,0,1.51.5,1.75,1.75,0,0,0,1,.5,1.79,1.79,0,0,0-.5,1l-1.51,1.51c.5,0,1.51,0,1.51.5a1.58,1.58,0,0,1,.5,1l1,1.51c2.51-.5,3.52.5,4,2a7.77,7.77,0,0,0,3,4c.5,0,.5.5,1,.5-.5.51-.5.51-1,.51-2.52,1.51-5,.51-7-2-.5-1-2-1.51-3-2.52-2-3.52-5-6.53-8.55-9.55-1-1-2.52-2.52-1-4.53,1-2.51-1.51-3-2.51-4.53l-1,1c-.5,1-1,1-1.51,0l-3-5.52c-.51-1-.51-2,1-1.51s2-.51,2-1.51c.51-2,1.51-1.51,2-.5C1006.14,505,1008.15,506.49,1007.14,509Zm22.14,53.3,1,1a1.84,1.84,0,0,0-1.51.51,85,85,0,0,0-10.56-3.53c-.5,0-.5-1-1-1.51h1.51l9,3C1028.27,561.81,1028.77,562.31,1029.28,562.31Zm51.3-12.57a1.75,1.75,0,0,0-.5-1,1.86,1.86,0,0,0-1.51-.5c0-.51.5-1,.5-1.52-.5.5-1.51.5-2.51,1,.5,0,.5,1,.5,2,.5.5,1,1.51,1,1A3.85,3.85,0,0,0,1080.58,549.74Zm42.24-465.23c0-.5-1-.5-1,0-.5,0-1,1-1.51,1-1.51.51-3,1.51-4,1-3-1-3.52-1-5,2a11.93,11.93,0,0,1-4,3c-3,.5-4,1.51-4,4.52l1,1.52c.5,0,1-.5,1.51-.5l5.53-4.54a3,3,0,0,1,2-.5c1-.5,2.52-.5,3-1,0-1.51,1-1.51,2.51-1.51.51,0,1-.51,1.51-1l2.51-3Zm64.89-39.24c-1,0-2-1.5-2.51.51-1,2-2,2.51-4,1.51-.52-.5-1,0-1.52,0-.5-.5-1,0-1.5-.5-.51,0-1-.5-2-1,0,1-.5,1.51-.5,2.51a1.88,1.88,0,0,0,.5,1.52l-1,1.5c-3.53,1.51-6.54,4.53-10.57,4.53-.5,0-1,0-1,.5-.51,3-3,2.52-5,2.52-1-.5-1.51-.5-1,1,.5,3,0,3-3,2.52H1153c.5.5,0,1.5.5,2,1,0,2,.51,2.52,0l6-3.52,5-1.51c.5,0,2,0,2-.5,1-3,3.52-2.52,5.54-2.52,1,0,1.5,0,1.5-1-.5-1.51,0-3,2-1.51l1.5-1,4.52-3.52c1-1,2-1,3,.51a1,1,0,0,0,1.52.5,1.75,1.75,0,0,0,.5-1c.5-.5,0-1.51.5-2C1190.73,45.27,1189.72,44.77,1187.71,45.27Zm32.69-10.05c0-.51-.5-.51-.5-1-.51,0-1-.5-1.51,0-2.52,0-5-2-6.54-2.51-2-1-2.52,0-3.52.5s-1.5,1.51-2.52,2.51a5.36,5.36,0,0,1-6,.51.68.68,0,0,0-1,0l-4,7.05c-1,.5-2,1.5-2,2,0,1,1.51,1.51,2,2.52l1-.5c0-2,1.51-1.52,2.51-1.52,1.51-.5,2.52-.5,3.52-2s3-2,5-3a1.75,1.75,0,0,1,1-.5c.5-5,1.5-4.54,2.52,0,1,.5,2-2,2.5-3.53.52-1,2-1,3-1.51C1217.39,36.23,1218.89,35.72,1220.4,35.22Z" transform="translate(-0.22 -0.04)"/><text class="cls-2" transform="translate(241.24 676.64) scale(1.05 1)">M<tspan class="cls-3" x="79.33" y="0">A</tspan><tspan x="136.22" y="0">G</tspan><tspan class="cls-3" x="199.56" y="0">D</tspan><tspan class="cls-4" x="262.73" y="0">ALENA </tspan><tspan class="cls-5" x="556.84" y="0">K</tspan><tspan class="cls-6" x="614.34" y="0">OSZTYLA</tspan></text></svg>